<?xml version="1.0" encoding="UTF-8" standalone="no"?>
<!-- Created with Inkscape (http://www.inkscape.org/) -->

<svg
   version="1.1"
   id="svg2"
   width="1170"
   height="350"
   viewBox="0 0 1170 350"
   sodipodi:docname="horizontal_white.svg"
   inkscape:version="1.1.2 (0a00cf5339, 2022-02-04)"
   inkscape:export-filename="/home/yvonneg/logo_norkyst/horizontal_56_112_106.png"
   inkscape:export-xdpi="96"
   inkscape:export-ydpi="96"
   xmlns:inkscape="http://www.inkscape.org/namespaces/inkscape"
   xmlns:sodipodi="http://sodipodi.sourceforge.net/DTD/sodipodi-0.dtd"
   xmlns:xlink="http://www.w3.org/1999/xlink"
   xmlns="http://www.w3.org/2000/svg"
   xmlns:svg="http://www.w3.org/2000/svg">
  <defs
     id="defs6">
    <linearGradient
       inkscape:collect="always"
       id="linearGradient119063">
      <stop
         style="stop-color:#0c5584;stop-opacity:1;"
         offset="0"
         id="stop119059" />
      <stop
         style="stop-color:#0c5584;stop-opacity:0;"
         offset="1"
         id="stop119061" />
    </linearGradient>
    <linearGradient
       inkscape:collect="always"
       xlink:href="#linearGradient119063"
       id="linearGradient119065"
       x1="53.928219"
       y1="698.63312"
       x2="212.21069"
       y2="698.63312"
       gradientUnits="userSpaceOnUse" />
  </defs>
  <sodipodi:namedview
     id="namedview4"
     pagecolor="#c3ffff"
     bordercolor="#666666"
     borderopacity="1.0"
     inkscape:pageshadow="2"
     inkscape:pageopacity="0"
     inkscape:pagecheckerboard="0"
     showgrid="false"
     inkscape:zoom="0.87405859"
     inkscape:cx="572.88727"
     inkscape:cy="317.23422"
     inkscape:window-width="3370"
     inkscape:window-height="1376"
     inkscape:window-x="0"
     inkscape:window-y="0"
     inkscape:window-maximized="1"
     inkscape:current-layer="g8"
     inkscape:rotation="-1" />
  <g
     inkscape:groupmode="layer"
     inkscape:label="Image"
     id="g8">
    <text
       xml:space="preserve"
       style="font-style:normal;font-variant:normal;font-weight:normal;font-stretch:normal;font-size:359.047px;line-height:1.25;font-family:Mallanna;-inkscape-font-specification:'Mallanna, Normal';font-variant-ligatures:normal;font-variant-caps:normal;font-variant-numeric:normal;font-variant-east-asian:normal;fill:#ffffff;fill-opacity:1;stroke:#ffffff;stroke-width:6;stroke-opacity:1;stroke-miterlimit:4;stroke-dasharray:none"
       x="37.053749"
       y="269.53772"
       id="text2765"><tspan
         sodipodi:role="line"
         id="tspan2763"
         x="37.053749"
         y="269.53772"
         style="font-style:normal;font-variant:normal;font-weight:normal;font-stretch:normal;font-size:359.047px;font-family:Mallanna;-inkscape-font-specification:'Mallanna, Normal';font-variant-ligatures:normal;font-variant-caps:normal;font-variant-numeric:normal;font-variant-east-asian:normal;fill:#ffffff;fill-opacity:1;stroke:#ffffff;stroke-width:6;stroke-opacity:1;stroke-miterlimit:4;stroke-dasharray:none">N</tspan></text>
    <text
       xml:space="preserve"
       style="font-style:normal;font-variant:normal;font-weight:normal;font-stretch:normal;font-size:359.801px;line-height:1.25;font-family:Mallanna;-inkscape-font-specification:'Mallanna, Normal';font-variant-ligatures:normal;font-variant-caps:normal;font-variant-numeric:normal;font-variant-east-asian:normal;fill:#ffffff;fill-opacity:1;stroke:#ffffff;stroke-width:6;stroke-opacity:1;stroke-miterlimit:4;stroke-dasharray:none"
       x="418.89795"
       y="268.26575"
       id="text25707"><tspan
         sodipodi:role="line"
         id="tspan25705"
         x="418.89795"
         y="268.26575"
         style="font-style:normal;font-variant:normal;font-weight:normal;font-stretch:normal;font-size:359.801px;font-family:Mallanna;-inkscape-font-specification:'Mallanna, Normal';font-variant-ligatures:normal;font-variant-caps:normal;font-variant-numeric:normal;font-variant-east-asian:normal;fill:#ffffff;fill-opacity:1;stroke:#ffffff;stroke-width:6;stroke-opacity:1;stroke-miterlimit:4;stroke-dasharray:none">R</tspan></text>
    <text
       xml:space="preserve"
       style="font-style:normal;font-variant:normal;font-weight:normal;font-stretch:normal;font-size:359.801px;line-height:1.25;font-family:Mallanna;-inkscape-font-specification:'Mallanna, Normal';font-variant-ligatures:normal;font-variant-caps:normal;font-variant-numeric:normal;font-variant-east-asian:normal;fill:#ffffff;fill-opacity:1;stroke:#ffffff;stroke-width:6;stroke-opacity:1;stroke-miterlimit:4;stroke-dasharray:none"
       x="566.68524"
       y="268.90216"
       id="text32903"><tspan
         sodipodi:role="line"
         id="tspan32901"
         x="566.68524"
         y="268.90216"
         style="fill:#ffffff;fill-opacity:1;stroke:#ffffff;stroke-width:6;stroke-opacity:1;stroke-miterlimit:4;stroke-dasharray:none">K</tspan></text>
    <text
       xml:space="preserve"
       style="font-style:normal;font-variant:normal;font-weight:normal;font-stretch:normal;font-size:359.047px;line-height:1.25;font-family:Mallanna;-inkscape-font-specification:'Mallanna, Normal';font-variant-ligatures:normal;font-variant-caps:normal;font-variant-numeric:normal;font-variant-east-asian:normal;fill:#ffffff;fill-opacity:1;stroke:#ffffff;stroke-width:6;stroke-miterlimit:4;stroke-dasharray:none;stroke-opacity:1"
       x="735.17291"
       y="271.66943"
       id="text39936"><tspan
         sodipodi:role="line"
         id="tspan39934"
         x="735.17291"
         y="271.66943"
         style="fill:#ffffff;fill-opacity:1;stroke:#ffffff;stroke-width:6;stroke-miterlimit:4;stroke-dasharray:none;stroke-opacity:1">Y</tspan></text>
    <text
       xml:space="preserve"
       style="font-style:normal;font-variant:normal;font-weight:normal;font-stretch:normal;font-size:347.395px;line-height:1.25;font-family:Mallanna;-inkscape-font-specification:'Mallanna, Normal';font-variant-ligatures:normal;font-variant-caps:normal;font-variant-numeric:normal;font-variant-east-asian:normal;fill:#ffffff;fill-opacity:1;stroke:#ffffff;stroke-width:6;stroke-miterlimit:4;stroke-dasharray:none;stroke-opacity:1"
       x="877.93915"
       y="266.36584"
       id="text46495"><tspan
         sodipodi:role="line"
         id="tspan46493"
         x="877.93915"
         y="266.36584"
         style="fill:#ffffff;fill-opacity:1;stroke:#ffffff;stroke-width:6;stroke-miterlimit:4;stroke-dasharray:none;stroke-opacity:1">S</tspan></text>
    <text
       xml:space="preserve"
       style="font-style:normal;font-variant:normal;font-weight:normal;font-stretch:normal;font-size:359.801px;line-height:1.25;font-family:Mallanna;-inkscape-font-specification:'Mallanna, Normal';font-variant-ligatures:normal;font-variant-caps:normal;font-variant-numeric:normal;font-variant-east-asian:normal;fill:#ffffff;fill-opacity:1;stroke:#ffffff;stroke-width:6;stroke-opacity:1;stroke-miterlimit:4;stroke-dasharray:none"
       x="1000.2988"
       y="269.67542"
       id="text53330"><tspan
         sodipodi:role="line"
         id="tspan53328"
         x="1000.2988"
         y="269.67542"
         style="fill:#ffffff;fill-opacity:1;stroke:#ffffff;stroke-width:6;stroke-opacity:1;stroke-miterlimit:4;stroke-dasharray:none">T</tspan></text>
    <ellipse
       style="font-variation-settings:normal;opacity:1;fill:#ffffff;fill-opacity:0;fill-rule:evenodd;stroke:#ffffff;stroke-width:23.7966;stroke-linecap:butt;stroke-linejoin:miter;stroke-miterlimit:4;stroke-dasharray:none;stroke-dashoffset:0;stroke-opacity:1;stop-color:#000000;stop-opacity:1"
       id="path858"
       cx="325.88254"
       cy="169.67033"
       rx="90.096397"
       ry="89.024849" />
    <path
       id="path38214"
       style="opacity:1;fill:#ffffff;fill-opacity:1;stroke:#ffffff;stroke-width:0.273564;stroke-linecap:butt;stroke-linejoin:miter;stroke-miterlimit:4;stroke-dasharray:none;stroke-opacity:1"
       d="M 300.82617 119.25391 C 296.54772 119.42936 293.24727 120.16286 289.10742 121.2168 C 285.99746 122.00872 283.79093 123.09921 281.02148 124.63086 C 278.24695 126.16533 275.67207 127.97693 273.26367 130.01953 C 268.71848 133.8741 266.1878 137.07533 263.26562 141.76758 C 262.4219 143.12228 261.75132 144.5703 261.05078 146.00195 C 258.29342 151.63651 256.90828 156.46551 256.48633 162.16016 C 256.35666 163.91262 256.1797 165.61859 256.13281 167.375 C 256.10451 168.4495 256.0809 169.52486 256.0957 170.59961 C 256.1106 171.66292 256.14575 172.75231 256.18945 173.78906 C 256.24195 175.07243 256.34776 176.37917 256.4375 177.67383 C 256.65241 180.76998 257.38719 183.74305 258.13281 186.74414 C 258.91188 189.87965 259.96909 192.91522 261.25781 195.86914 C 265.98345 206.70024 271.96831 213.47672 279.25977 221.08008 C 282.40996 224.36481 286.30949 227.43131 289.5918 229.69336 C 300.521 236.75786 309.12505 239.97956 320.33984 242.83984 C 323.24735 243.58148 326.55789 243.90569 329.24414 244.20898 C 333.38232 244.67619 337.64178 244.5677 341.49219 244.63281 C 347.28557 244.72891 344.75601 244.60891 346.3457 244.2832 C 353.74434 242.76906 361.26074 240.73808 367.76953 236.9082 C 377.76187 231.02845 386.94643 223.1251 393.63672 213.65625 C 397.98341 207.50433 400.46822 200.08552 402.26172 192.76953 C 403.79259 186.52485 404.76305 172.11076 403.98047 173.55664 C 403.16986 175.05448 402.22902 176.41806 401.34375 177.72656 C 399.53794 180.39577 397.33016 183.05998 395.41016 185.28125 C 393.0254 188.04026 389.91147 190.61173 387.28125 192.58203 C 384.76454 194.46744 382.07293 196.10424 379.37109 197.71094 C 377.70095 198.70414 375.94671 199.55259 374.16016 200.31445 C 370.38797 201.92309 366.36656 202.7043 362.38086 203.60156 C 359.91684 204.15624 357.40603 204.33164 354.89844 204.58203 C 352.86571 204.78499 350.83358 204.78126 348.79688 204.71484 C 345.73897 204.61704 342.77764 203.95645 339.78906 203.36328 C 336.97176 202.80407 334.23561 202.00666 331.5625 200.98242 C 329.72513 200.27839 327.97167 199.37592 326.23242 198.45703 C 321.76894 196.17639 317.74981 192.70743 314.3457 189.09766 C 312.67414 187.32383 311.22332 185.41957 309.97852 183.33984 C 308.67977 181.1701 307.72945 178.82585 306.9082 176.44141 C 304.89967 170.60913 304.9835 165.00436 305.86914 159.43945 C 306.52621 155.3117 308.86139 151.91989 311.45117 149.14648 C 312.9013 147.59358 314.69453 146.61465 316.58398 145.67969 C 318.6517 144.65659 320.91184 144.26565 323.17578 143.94141 C 325.31149 143.63549 327.40744 143.85274 329.51172 144.23242 C 331.5829 144.6071 333.50597 145.31722 335.22852 146.48047 C 338.84963 148.92588 341.46682 151.78875 343.55078 155.31055 L 344.51758 156.94531 C 345.403 158.44138 344.99607 153.6084 344.87109 151.9043 C 344.49717 146.80772 342.04762 142.32864 339.74219 138.28125 C 337.34007 134.57147 333.81973 131.21424 330.69141 128.64062 C 328.93759 127.20882 327.07389 125.91923 324.83594 124.62109 C 322.47979 123.25455 319.98791 122.31067 317.4043 121.50977 C 314.19216 120.51443 310.88589 120.06238 307.57031 119.57617 C 305.32463 119.24684 303.08426 119.16113 300.82617 119.25391 z M 308.15039 136.17578 C 309.47124 136.13861 310.70636 136.22698 311.66406 136.95508 C 311.79879 137.05613 311.00324 137.1231 310.00391 137.26172 C 309.38231 137.34742 308.64195 137.48699 307.88281 137.75195 C 305.6226 138.54074 303.22467 140.11397 302.05273 140.90039 C 299.31628 142.73647 296.65069 145.1654 294.77539 147.43164 C 293.08118 149.47887 291.91151 152.02905 290.91211 154.23828 C 289.32998 157.73623 288.61548 160.8082 287.93164 164.2832 C 287.64413 165.74439 287.54704 167.21688 287.42773 168.69727 C 287.2737 170.60518 287.26495 172.73003 287.42383 174.44922 C 287.73287 177.80235 288.38 181.30474 289.34375 184.2207 C 290.64964 188.17236 293.07022 192.19385 294.97266 195.03711 C 296.17788 196.83824 297.53696 198.51983 299.02539 200.08789 C 302.43219 203.67702 306.09111 207.38997 309.88086 209.76953 C 314.9456 212.94977 320.6103 215.81443 326.06445 217.64258 C 334.63628 220.51569 343.73536 221.50161 352.14844 220.73633 L 355.42773 220.4375 C 360.15764 220.00729 364.79493 218.80214 369.1543 217.33789 C 371.817 216.44352 374.63982 215.249 376.91016 214.25977 C 381.38678 212.30913 385.77466 209.44819 389.23828 207.01367 C 391.93415 205.11877 394.50084 202.75255 396.75195 200.81836 L 397.96875 199.77148 C 399.70776 198.27728 396.22935 203.986 395.14258 205.99609 C 392.83584 210.26257 390.05707 214.06665 386.5 216.86719 L 384.6875 218.29297 C 380.2954 221.75095 374.85694 224.24846 370.02539 226.04688 C 361.52718 228.99299 353.73513 230.31625 345.39453 230.3457 C 342.05724 230.3651 338.76511 229.9687 335.61523 229.5293 C 330.58011 228.82693 325.44078 227.66898 321.01562 225.98047 C 319.34195 225.34189 317.51004 224.68957 315.86719 223.97656 C 313.40805 222.9091 311.18124 221.70782 308.93945 220.43164 C 304.63369 217.98067 300.59863 215.17855 297.37695 212.47656 C 293.54969 209.26657 290.40175 205.31126 287.7168 201.96094 C 284.20807 197.58296 281.56808 192.24402 279.85742 187.40625 C 278.158 182.601 277.357 177.23144 277.20312 172.54688 C 276.98489 165.91054 278.38212 158.9164 281.04883 153.63477 C 285.34619 145.12334 292.65312 139.75911 301.21289 137.16016 C 303.12221 136.58053 304.90912 136.32572 306.80859 136.23633 C 307.26033 136.21555 307.71011 136.18817 308.15039 136.17578 z " />
  </g>
</svg>
