<?xml version="1.0" encoding="UTF-8" standalone="no"?>
<!-- Created with Inkscape (http://www.inkscape.org/) -->

<svg
   version="1.1"
   id="svg2"
   width="1170"
   height="800"
   viewBox="0 0 1170 800"
   sodipodi:docname="vertical_white.svg"
   inkscape:version="1.1.2 (0a00cf5339, 2022-02-04)"
   inkscape:export-filename="/home/yvonneg/logo_norkyst/vertical_35_91_100.png"
   inkscape:export-xdpi="96"
   inkscape:export-ydpi="96"
   xmlns:inkscape="http://www.inkscape.org/namespaces/inkscape"
   xmlns:sodipodi="http://sodipodi.sourceforge.net/DTD/sodipodi-0.dtd"
   xmlns:xlink="http://www.w3.org/1999/xlink"
   xmlns="http://www.w3.org/2000/svg"
   xmlns:svg="http://www.w3.org/2000/svg">
  <defs
     id="defs6">
    <linearGradient
       inkscape:collect="always"
       id="linearGradient119063">
      <stop
         style="stop-color:#0c5584;stop-opacity:1;"
         offset="0"
         id="stop119059" />
      <stop
         style="stop-color:#0c5584;stop-opacity:0;"
         offset="1"
         id="stop119061" />
    </linearGradient>
    <linearGradient
       inkscape:collect="always"
       xlink:href="#linearGradient119063"
       id="linearGradient119065"
       x1="53.928219"
       y1="698.63312"
       x2="212.21069"
       y2="698.63312"
       gradientUnits="userSpaceOnUse" />
  </defs>
  <sodipodi:namedview
     id="namedview4"
     pagecolor="#aaffff"
     bordercolor="#666666"
     borderopacity="1.0"
     inkscape:pageshadow="2"
     inkscape:pageopacity="0"
     inkscape:pagecheckerboard="0"
     showgrid="false"
     inkscape:zoom="0.81499707"
     inkscape:cx="603.06965"
     inkscape:cy="410.43092"
     inkscape:window-width="3370"
     inkscape:window-height="1376"
     inkscape:window-x="0"
     inkscape:window-y="0"
     inkscape:window-maximized="1"
     inkscape:current-layer="g8" />
  <g
     inkscape:groupmode="layer"
     inkscape:label="Image"
     id="g8">
    <text
       xml:space="preserve"
       style="font-style:normal;font-variant:normal;font-weight:normal;font-stretch:normal;font-size:359.047px;line-height:1.25;font-family:Mallanna;-inkscape-font-specification:'Mallanna, Normal';font-variant-ligatures:normal;font-variant-caps:normal;font-variant-numeric:normal;font-variant-east-asian:normal;fill:#ffffff;fill-opacity:1;stroke:#ffffff;stroke-width:6;stroke-miterlimit:4;stroke-dasharray:none;stroke-opacity:1"
       x="37.053749"
       y="767.53772"
       id="text2765"><tspan
         sodipodi:role="line"
         id="tspan2763"
         x="37.053749"
         y="767.53772"
         style="font-style:normal;font-variant:normal;font-weight:normal;font-stretch:normal;font-size:359.047px;font-family:Mallanna;-inkscape-font-specification:'Mallanna, Normal';font-variant-ligatures:normal;font-variant-caps:normal;font-variant-numeric:normal;font-variant-east-asian:normal;fill:#ffffff;fill-opacity:1;stroke:#ffffff;stroke-width:6;stroke-miterlimit:4;stroke-dasharray:none;stroke-opacity:1">N</tspan></text>
    <text
       xml:space="preserve"
       style="font-style:normal;font-variant:normal;font-weight:normal;font-stretch:normal;font-size:359.801px;line-height:1.25;font-family:Mallanna;-inkscape-font-specification:'Mallanna, Normal';font-variant-ligatures:normal;font-variant-caps:normal;font-variant-numeric:normal;font-variant-east-asian:normal;fill:#ffffff;fill-opacity:1;stroke:#ffffff;stroke-width:6;stroke-miterlimit:4;stroke-dasharray:none;stroke-opacity:1"
       x="420.89795"
       y="766.26575"
       id="text25707"><tspan
         sodipodi:role="line"
         id="tspan25705"
         x="420.89795"
         y="766.26575"
         style="font-style:normal;font-variant:normal;font-weight:normal;font-stretch:normal;font-size:359.801px;font-family:Mallanna;-inkscape-font-specification:'Mallanna, Normal';font-variant-ligatures:normal;font-variant-caps:normal;font-variant-numeric:normal;font-variant-east-asian:normal;fill:#ffffff;fill-opacity:1;stroke:#ffffff;stroke-width:6;stroke-miterlimit:4;stroke-dasharray:none;stroke-opacity:1">R</tspan></text>
    <text
       xml:space="preserve"
       style="font-style:normal;font-variant:normal;font-weight:normal;font-stretch:normal;font-size:359.801px;line-height:1.25;font-family:Mallanna;-inkscape-font-specification:'Mallanna, Normal';font-variant-ligatures:normal;font-variant-caps:normal;font-variant-numeric:normal;font-variant-east-asian:normal;fill:#ffffff;fill-opacity:1;stroke:#ffffff;stroke-width:6;stroke-miterlimit:4;stroke-dasharray:none;stroke-opacity:1"
       x="568.68524"
       y="766.90216"
       id="text32903"><tspan
         sodipodi:role="line"
         id="tspan32901"
         x="568.68524"
         y="766.90216"
         style="fill:#ffffff;fill-opacity:1;stroke:#ffffff;stroke-width:6;stroke-miterlimit:4;stroke-dasharray:none;stroke-opacity:1">K</tspan></text>
    <text
       xml:space="preserve"
       style="font-style:normal;font-variant:normal;font-weight:normal;font-stretch:normal;font-size:359.047px;line-height:1.25;font-family:Mallanna;-inkscape-font-specification:'Mallanna, Normal';font-variant-ligatures:normal;font-variant-caps:normal;font-variant-numeric:normal;font-variant-east-asian:normal;fill:#ffffff;fill-opacity:1;stroke:#ffffff;stroke-width:6;stroke-miterlimit:4;stroke-dasharray:none;stroke-opacity:1"
       x="735.17291"
       y="769.66943"
       id="text39936"><tspan
         sodipodi:role="line"
         id="tspan39934"
         x="735.17291"
         y="769.66943"
         style="fill:#ffffff;fill-opacity:1;stroke:#ffffff;stroke-width:6;stroke-miterlimit:4;stroke-dasharray:none;stroke-opacity:1">Y</tspan></text>
    <text
       xml:space="preserve"
       style="font-style:normal;font-variant:normal;font-weight:normal;font-stretch:normal;font-size:347.395px;line-height:1.25;font-family:Mallanna;-inkscape-font-specification:'Mallanna, Normal';font-variant-ligatures:normal;font-variant-caps:normal;font-variant-numeric:normal;font-variant-east-asian:normal;fill:#ffffff;fill-opacity:1;stroke:#ffffff;stroke-width:6;stroke-miterlimit:4;stroke-dasharray:none;stroke-opacity:1"
       x="877.93915"
       y="764.36584"
       id="text46495"><tspan
         sodipodi:role="line"
         id="tspan46493"
         x="877.93915"
         y="764.36584"
         style="fill:#ffffff;fill-opacity:1;stroke:#ffffff;stroke-width:6;stroke-miterlimit:4;stroke-dasharray:none;stroke-opacity:1">S</tspan></text>
    <text
       xml:space="preserve"
       style="font-style:normal;font-variant:normal;font-weight:normal;font-stretch:normal;font-size:359.801px;line-height:1.25;font-family:Mallanna;-inkscape-font-specification:'Mallanna, Normal';font-variant-ligatures:normal;font-variant-caps:normal;font-variant-numeric:normal;font-variant-east-asian:normal;fill:#ffffff;fill-opacity:1;stroke:#ffffff;stroke-width:6;stroke-miterlimit:4;stroke-dasharray:none;stroke-opacity:1"
       x="1000.2988"
       y="767.67542"
       id="text53330"><tspan
         sodipodi:role="line"
         id="tspan53328"
         x="1000.2988"
         y="767.67542"
         style="fill:#ffffff;fill-opacity:1;stroke:#ffffff;stroke-width:6;stroke-miterlimit:4;stroke-dasharray:none;stroke-opacity:1">T</tspan></text>
    <ellipse
       style="font-variation-settings:normal;opacity:1;fill:#ffffff;fill-opacity:0;fill-rule:evenodd;stroke:#ffffff;stroke-width:50.1621;stroke-linecap:butt;stroke-linejoin:miter;stroke-miterlimit:4;stroke-dasharray:none;stroke-dashoffset:0;stroke-opacity:1;stop-color:#000000;stop-opacity:1"
       id="path858"
       cx="590.88788"
       cy="243.48846"
       rx="189.91895"
       ry="187.6602" />
    <path
       id="path38214"
       style="opacity:1;fill:#ffffff;fill-opacity:1;stroke:#ffffff;stroke-width:0.57666;stroke-linecap:butt;stroke-linejoin:miter;stroke-miterlimit:4;stroke-dasharray:none;stroke-opacity:1"
       d="m 538.07023,137.21301 c -9.01877,0.36984 -15.97597,1.91605 -24.70258,4.13773 -6.55565,1.66931 -11.2069,3.96798 -17.04475,7.19663 -5.84861,3.23458 -11.27634,7.05336 -16.35315,11.35907 -9.58102,8.12527 -14.91561,14.87332 -21.07534,24.76432 -1.77855,2.85564 -3.19209,5.90801 -4.66885,8.92585 -5.81238,11.87741 -8.73218,22.05668 -9.62162,34.06074 -0.27334,3.69409 -0.64637,7.29027 -0.74522,10.99268 -0.0595,2.26494 -0.10901,4.53174 -0.0781,6.7973 0.0315,2.2414 0.10516,4.53778 0.19697,6.72322 0.11045,2.70526 0.33373,5.45984 0.52288,8.18889 0.45302,6.52654 2.0019,12.79366 3.57364,19.11982 1.64226,6.60946 3.87076,13.00829 6.58735,19.23504 9.96142,22.83147 22.57724,37.11599 37.94732,53.14345 6.64045,6.92406 14.86044,13.38807 21.77937,18.15643 23.03826,14.89162 41.1752,21.6828 64.81541,27.71212 6.12894,1.56342 13.10735,2.24677 18.76985,2.8861 8.72305,0.98483 17.70187,0.75614 25.81831,0.89339 12.21217,0.2023 6.88002,-0.0503 10.23099,-0.73697 15.59596,-3.1917 31.44019,-7.4729 45.16046,-15.54617 21.06331,-12.39422 40.42392,-29.05408 54.52677,-49.01394 9.16259,-12.96798 14.40042,-28.60647 18.18106,-44.02826 3.22697,-13.16349 5.2727,-43.54769 3.62308,-40.49982 -1.70873,3.15734 -3.69198,6.03173 -5.55814,8.78995 -3.80646,5.6266 -8.46041,11.24261 -12.50765,15.92494 -5.02701,5.81586 -11.59101,11.2364 -17.13541,15.38973 -5.30513,3.9743 -10.97883,7.42465 -16.67423,10.81144 -3.52059,2.09366 -7.21843,3.88213 -10.98438,5.48812 -7.95161,3.39095 -16.42853,5.03768 -24.83024,6.92906 -5.194,1.16922 -10.48671,1.53899 -15.77255,2.06677 -4.28491,0.42788 -8.56852,0.41998 -12.86179,0.28001 -6.44593,-0.20567 -12.68828,-1.59867 -18.98809,-2.84909 -5.93872,-1.17877 -11.70642,-2.85966 -17.34117,-5.0187 -3.87312,-1.48411 -7.56932,-3.38642 -11.23559,-5.32338 -9.40882,-4.80752 -17.88091,-12.11995 -25.05662,-19.72913 -3.52358,-3.73918 -6.58185,-7.75322 -9.20583,-12.13725 -2.73765,-4.57368 -4.74094,-9.51525 -6.47208,-14.54151 -4.23387,-12.2942 -4.05716,-24.10874 -2.19024,-35.83937 1.38502,-8.70107 6.30752,-15.85088 11.76662,-21.69705 3.05679,-3.27345 6.83685,-5.33699 10.8197,-7.30787 4.35866,-2.15659 9.12292,-2.98072 13.8952,-3.6642 4.502,-0.64481 8.92017,-0.18695 13.35591,0.61344 4.36592,0.78982 8.41966,2.28672 12.05074,4.73878 7.63308,5.15486 13.15001,11.18962 17.54288,18.61342 l 2.03798,3.44601 c 1.86641,3.15361 1.00863,-7.0341 0.74517,-10.62627 -0.78817,-10.74331 -5.95172,-20.18502 -10.81146,-28.71674 -5.06358,-7.82003 -12.48424,-14.8969 -19.07864,-20.32194 -3.69694,-3.01819 -7.62556,-5.73658 -12.34302,-8.47305 -4.96666,-2.88057 -10.21947,-4.87023 -15.66559,-6.55848 -6.77101,-2.09811 -13.74045,-3.05104 -20.72957,-4.07594 -4.73378,-0.69421 -9.45635,-0.8749 -14.21629,-0.67932 z m 15.43911,35.67052 c 2.78427,-0.0783 5.38784,0.10758 7.40667,1.64271 0.28399,0.21303 -1.39299,0.35417 -3.4995,0.64637 -1.31038,0.18042 -2.87102,0.4749 -4.47121,1.0334 -4.76442,1.66277 -9.81916,4.97905 -12.28954,6.63679 -5.76834,3.87036 -11.38724,8.99042 -15.34028,13.76755 -3.57133,4.3155 -6.03694,9.69116 -8.1436,14.34809 -3.33508,7.3735 -4.84119,13.84903 -6.28273,21.17416 -0.60602,3.08017 -0.81074,6.18407 -1.06218,9.3047 -0.3247,4.02174 -0.34313,8.50084 -0.009,12.12482 0.65145,7.06825 2.01558,14.45111 4.04712,20.59782 2.75275,8.3299 7.85525,16.80706 11.8655,22.80046 2.54053,3.79674 5.40542,7.34145 8.54297,10.64685 7.18136,7.56571 14.89421,15.3924 22.8828,20.40839 10.67626,6.70383 22.61716,12.74237 34.11427,16.59604 18.06903,6.0564 37.24942,8.13467 54.98382,6.52143 l 6.91255,-0.6299 c 9.97046,-0.90681 19.74563,-3.44722 28.93497,-6.53382 5.61283,-1.88523 11.56318,-4.40326 16.34901,-6.48852 9.43647,-4.11187 18.68593,-10.14259 25.98708,-15.27443 5.68277,-3.99437 11.09322,-8.98221 15.83842,-13.05939 l 2.56498,-2.2068 c 3.66576,-3.14969 -3.66661,8.88403 -5.95745,13.12119 -4.86251,8.99349 -10.71998,17.01235 -18.21813,22.91576 l -3.8207,3.00551 c -9.25833,7.28921 -20.72233,12.55387 -30.90698,16.34486 -17.91385,6.21029 -34.3391,8.9996 -51.92068,9.06168 -7.03489,0.041 -13.97455,-0.79472 -20.6143,-1.7209 -10.61382,-1.48059 -21.4473,-3.92151 -30.77531,-7.48077 -3.52805,-1.34615 -7.38958,-2.72121 -10.85265,-4.22415 -5.18375,-2.25019 -9.8778,-4.78236 -14.60332,-7.47251 -9.07633,-5.16657 -17.58208,-11.07328 -24.37325,-16.76897 -8.06769,-6.76651 -14.70336,-15.10413 -20.36309,-22.1664 -7.39625,-9.22858 -12.96127,-20.4828 -16.56723,-30.68064 -3.58226,-10.12923 -5.27076,-21.44799 -5.59513,-31.32283 -0.45998,-13.9891 2.48527,-28.73243 8.10659,-39.86582 9.0586,-17.94172 24.46128,-29.24924 42.50488,-34.72771 4.02474,-1.22184 7.79146,-1.75896 11.79546,-1.94739 0.95224,-0.0437 1.90036,-0.1013 2.82846,-0.12743 z" />
    <text
       xml:space="preserve"
       style="font-style:normal;font-variant:normal;font-weight:normal;font-stretch:normal;font-size:471.526px;line-height:1.25;font-family:Mallanna;-inkscape-font-specification:'Mallanna, Normal';font-variant-ligatures:normal;font-variant-caps:normal;font-variant-numeric:normal;font-variant-east-asian:normal;fill:#ffffff;fill-opacity:1;stroke:#ffffff;stroke-width:4.9;stroke-miterlimit:4;stroke-dasharray:none;stroke-opacity:1"
       x="213.50832"
       y="767.25275"
       id="text8879"><tspan
         sodipodi:role="line"
         id="tspan8877"
         x="213.50832"
         y="767.25275"
         style="font-style:normal;font-variant:normal;font-weight:normal;font-stretch:normal;font-size:471.526px;font-family:Mallanna;-inkscape-font-specification:'Mallanna, Normal';font-variant-ligatures:normal;font-variant-caps:normal;font-variant-numeric:normal;font-variant-east-asian:normal;fill:#ffffff;fill-opacity:1;stroke:#ffffff;stroke-width:4.9;stroke-miterlimit:4;stroke-dasharray:none;stroke-opacity:1">o</tspan></text>
  </g>
</svg>
